HIERARCHY
ROOT Hips
{
	OFFSET 0.00000 0.00000 0.00000
	CHANNELS 6 Xposition Yposition Zposition Zrotation Yrotation Xrotation 
	JOINT LHipJoint
	{
		OFFSET 0 0 0
		CHANNELS 3 Zrotation Yrotation Xrotation
		JOINT LeftUpLeg
		{
			OFFSET 3.13874 -1.57224 1.49786
			CHANNELS 3 Zrotation Yrotation Xrotation
			JOINT LeftLeg
			{
				OFFSET 2.10955 -5.79594 0.00000
				CHANNELS 3 Zrotation Yrotation Xrotation
				JOINT LeftFoot
				{
					OFFSET 2.41843 -6.64458 0.00000
					CHANNELS 3 Zrotation Yrotation Xrotation
					JOINT LeftToeBase
					{
						OFFSET 0.04713 -0.12948 1.66229
						CHANNELS 3 Zrotation Yrotation Xrotation
						End Site
						{
							OFFSET 0.00000 -0.00000 0.85167
						}
					}
				}
			}
		}
	}
	JOINT RHipJoint
	{
		OFFSET 0 0 0
		CHANNELS 3 Zrotation Yrotation Xrotation
		JOINT RightUpLeg
		{
			OFFSET -3.13988 -1.57224 1.49786
			CHANNELS 3 Zrotation Yrotation Xrotation
			JOINT RightLeg
			{
				OFFSET -2.15006 -5.90725 0.00000
				CHANNELS 3 Zrotation Yrotation Xrotation
				JOINT RightFoot
				{
					OFFSET -2.34496 -6.44273 0.00000
					CHANNELS 3 Zrotation Yrotation Xrotation
					JOINT RightToeBase
					{
						OFFSET -0.08699 -0.23900 1.55223
						CHANNELS 3 Zrotation Yrotation Xrotation
						End Site
						{
							OFFSET -0.00000 -0.00000 0.80281
						}
					}
				}
			}
		}
	}
	JOINT LowerBack
	{
		OFFSET 0 0 0
		CHANNELS 3 Zrotation Yrotation Xrotation
		JOINT Spine
		{
			OFFSET 0.01292 1.96517 -0.16495
			CHANNELS 3 Zrotation Yrotation Xrotation
			JOINT Spine1
			{
				OFFSET 0.02122 1.88666 0.19706
				CHANNELS 3 Zrotation Yrotation Xrotation
				JOINT Neck
				{
					OFFSET 0 0 0
					CHANNELS 3 Zrotation Yrotation Xrotation
					JOINT Neck1
					{
						OFFSET -0.01683 1.81591 0.07903
						CHANNELS 3 Zrotation Yrotation Xrotation
						JOINT Head
						{
							OFFSET 0.00815 1.74013 -0.47700
							CHANNELS 3 Zrotation Yrotation Xrotation
							End Site
							{
								OFFSET -0.00204 1.83225 -0.16933
							}
						}
					}
				}
				JOINT LeftShoulder
				{
					OFFSET 0 0 0
					CHANNELS 3 Zrotation Yrotation Xrotation
					JOINT LeftArm
					{
						OFFSET 3.38482 1.41533 0.19802
						CHANNELS 3 Zrotation Yrotation Xrotation
						JOINT LeftForeArm
						{
							OFFSET 4.32712 -0.00000 0.00000
							CHANNELS 3 Zrotation Yrotation Xrotation
							JOINT LeftHand
							{
								OFFSET 3.28587 -0.00000 -0.00000
								CHANNELS 3 Zrotation Yrotation Xrotation
								JOINT LeftFingerBase
								{
									OFFSET 0 0 0
									CHANNELS 3 Zrotation Yrotation Xrotation
									JOINT LeftHandIndex1
									{
										OFFSET 0.43316 -0.00000 -0.00000
										CHANNELS 3 Zrotation Yrotation Xrotation
										End Site
										{
											OFFSET 0.34922 -0.00000 -0.00000
										}
									}
								}
								JOINT LThumb
								{
									OFFSET 0 0 0
									CHANNELS 3 Zrotation Yrotation Xrotation
									End Site
									{
										OFFSET 0.35456 -0.00000 0.35456
									}
								}
							}
						}
					}
				}
				JOINT RightShoulder
				{
					OFFSET 0 0 0
					CHANNELS 3 Zrotation Yrotation Xrotation
					JOINT RightArm
					{
						OFFSET -3.09725 1.62858 -0.14144
						CHANNELS 3 Zrotation Yrotation Xrotation
						JOINT RightForeArm
						{
							OFFSET -4.29104 -0.00000 0.00000
							CHANNELS 3 Zrotation Yrotation Xrotation
							JOINT RightHand
							{
								OFFSET -3.22720 -0.00000 -0.00000
								CHANNELS 3 Zrotation Yrotation Xrotation
								JOINT RightFingerBase
								{
									OFFSET 0 0 0
									CHANNELS 3 Zrotation Yrotation Xrotation
									JOINT RightHandIndex1
									{
										OFFSET -0.54362 -0.00000 -0.00000
										CHANNELS 3 Zrotation Yrotation Xrotation
										End Site
										{
											OFFSET -0.43828 -0.00000 -0.00000
										}
									}
								}
								JOINT RThumb
								{
									OFFSET 0 0 0
									CHANNELS 3 Zrotation Yrotation Xrotation
									End Site
									{
										OFFSET -0.44497 -0.00000 0.44497
									}
								}
							}
						}
					}
				}
			}
		}
	}
}
MOTION
Frames: 15
Frame Time: 0.0238095
0.00 0.00 0.00 0 0 0 0 0 0 -21 0 0 0 0 0 0 0 0 0 0 0 0 0 0 21 0 0 0 0 0 0 0 0 0 0 0 0 0 0 0 0 0 0 0 0 0 0 -16 0 0 21 0 0 11 0 0 0 -8 0 0 0 0 0 0 0 0 0 0 0 0 0 0 0 0 0 0 0 0 8 0 0 0 0 0 0 0 0 0 0 0 0 0 0 0 0 0
0.00 0.00 0.00 -111.2860 81.1168 -102.4660 0.0000 0.0000 0.0000 -11.5318 -15.3051 -38.1447 6.0662 14.4922 45.2469 0.6883 8.5520 -21.0329 12.5351 -18.6078 -67.6752 0.0000 0.0000 0.0000 44.4159 11.1033 7.7769 -0.0564 1.5318 -4.2135 -1.1679 -10.1175 -26.3836 -0.0004 0.1286 -0.3534 2.1477 0.4279 10.7565 4.8953 2.2752 -10.9294 3.8438 1.4368 -18.8997 -1.6569 -2.1360 -15.7769 -5.6740 0.5257 33.9813 -1.8321 -0.3635 14.3378 0.0000 0.0000 0.0000 -90.9523 25.6687 4.7017 20.4974 -31.2369 -5.7871 -0.0000 -0.0000 11.7616 29.2292 28.1900 14.8064 -7.1250 0.0000 -0.0000 -1.5374 61.5303 -0.6187 0.0000 0.0000 0.0000 64.4097 -12.2388 57.0815 -23.2933 34.4080 -7.3034 0.0000 -0.0000 -8.7612 -18.7292 -17.8406 5.9303 7.1250 -0.0000 -0.0000 9.0456 -48.5386 -0.7955
0.00 0.00 0.00 -107.1190 80.2794 -97.8171 0.0000 0.0000 0.0000 -6.6184 -21.4367 -38.4608 2.3207 9.5043 27.3860 0.1871 13.4684 -21.2081 12.3970 -18.5535 -67.2418 0.0000 0.0000 0.0000 45.9415 10.7256 9.9740 -0.0593 1.5710 -4.3215 -1.3324 -9.6072 -27.1960 -0.0018 0.2747 -0.7546 3.3425 0.5916 11.3301 5.0687 2.8717 -11.2056 3.2254 1.5796 -19.6704 -1.4743 -1.9591 -15.8288 -6.0199 0.9403 34.4056 -1.9477 -0.1967 14.5621 -0.0000 0.0000 0.0000 -91.4250 26.5545 5.0109 20.4616 -31.1944 -5.7685 -0.0000 -0.0000 12.3634 29.7287 30.4295 16.1312 -7.1250 0.0000 -0.0000 -1.9517 64.0447 -0.9008 -0.0000 0.0000 0.0000 64.4865 -11.0383 58.9823 -23.9206 35.0801 -7.6608 0.0000 -0.0000 -8.8689 -19.8620 -17.1033 6.0644 7.1250 -0.0000 -0.0000 7.7654 -47.9427 -0.5670
0.00 0.00 0.00 -86.1940 83.4395 -76.2344 0.0000 0.0000 0.0000 -14.3693 -29.8639 -28.0037 1.2798 7.1693 20.2181 -0.4483 12.9494 -10.5685 11.8275 -18.3168 -65.4410 0.0000 0.0000 0.0000 36.8741 -0.9068 14.5329 -0.5329 -4.6776 12.9914 -0.3621 -3.1829 -12.9877 -0.1194 2.2281 -6.1364 2.5534 1.3567 7.5996 3.1570 3.3797 -12.5010 1.3636 1.7504 -18.6958 0.0376 -1.4630 -16.2055 -6.6925 1.6094 35.5932 -2.4235 0.2146 15.2397 -0.0000 0.0000 0.0000 -89.7967 27.2599 -1.4919 15.8000 -25.2487 -3.5602 -0.0000 -0.0000 18.0560 28.8218 29.5795 15.1961 -7.1250 0.0000 -0.0000 -2.6649 62.8981 -1.1587 -0.0000 0.0000 0.0000 67.6501 -20.6803 58.0961 -21.0529 31.8901 -6.0779 0.0000 -0.0000 -7.4778 -17.7328 -16.8168 5.2856 7.1250 -0.0000 -0.0000 9.6915 -47.3482 -0.5666
0.00 0.00 0.00 -63.8763 86.6266 -56.4048 0.0000 0.0000 0.0000 -25.5402 -26.1135 -14.3656 0.7522 5.5394 15.4538 -0.0142 9.6050 -13.4397 11.3962 -18.1236 -64.0618 0.0000 0.0000 0.0000 27.2579 -4.8114 6.9486 -2.9409 -10.5987 30.9381 0.6541 -16.0130 2.1134 -0.0025 0.3231 -0.8877 0.1166 1.4149 9.2654 2.2695 2.8505 -12.2520 1.7872 1.7105 -19.5535 1.0070 -1.3103 -15.1883 -7.7410 1.8578 35.0849 -2.9619 0.3337 14.7874 0.0000 0.0000 0.0000 -88.4386 25.6676 2.3367 17.3616 -27.3321 -4.2521 -0.0000 -0.0000 16.3440 28.5726 31.5923 15.9234 -7.1250 0.0000 -0.0000 -4.0719 64.9401 -1.9654 0.0000 0.0000 0.0000 68.1103 -24.1350 52.2973 -17.9216 28.0567 -4.5123 0.0000 -0.0000 -7.4990 -17.4470 -16.1717 5.0025 7.1250 -0.0000 -0.0000 9.7786 -46.6507 -0.4021
0.00 0.00 0.00 8.5244 86.8453 16.0690 0.0000 0.0000 0.0000 -33.3150 -22.6621 -6.1325 0.4694 4.3944 12.1888 0.3611 7.3087 -16.3184 11.4566 -18.1514 -64.2558 0.0000 0.0000 0.0000 21.6116 -1.1305 -11.5095 -7.5375 -15.7683 50.8790 0.7823 -16.3200 -11.7954 -0.2637 3.3035 -9.1249 -3.7057 1.0509 10.3030 1.7804 1.4838 -12.4205 3.7145 1.6063 -20.5807 1.0611 -0.7714 -15.4318 -6.5654 2.3822 36.4982 -2.4365 0.7382 15.5385 -0.0000 -0.0000 0.0000 -86.0444 23.9541 9.6153 22.3605 -33.3821 -6.7831 -0.0000 -0.0000 10.7216 31.5870 30.0944 17.1357 -7.1250 0.0000 -0.0000 0.6016 64.2080 0.2799 -0.0000 -0.0000 0.0000 67.0502 -24.8967 49.6566 -17.3214 27.2795 -4.2336 0.0000 -0.0000 -7.4566 -19.2265 -17.0480 5.8380 7.1250 -0.0000 -0.0000 8.3517 -47.7946 -0.5797
0.00 0.00 0.00 28.8204 86.5723 36.1247 0.0000 0.0000 0.0000 -38.2594 -19.6965 5.5449 0.0901 1.9359 5.3286 0.6249 7.6261 -19.6120 11.7325 -18.2753 -65.1384 0.0000 0.0000 0.0000 21.2893 8.4192 -26.1730 -4.3927 -12.6654 38.1284 -1.3540 -10.7032 -28.1948 -0.4486 4.2971 -11.9140 -5.9592 0.2534 11.9758 2.2293 -0.1909 -11.7425 6.0308 1.2151 -20.6970 0.7068 -0.5627 -15.7085 -5.3634 2.2374 36.2661 -1.8857 0.7549 15.4546 0.0000 0.0000 0.0000 -84.0484 18.9984 17.0064 25.9072 -37.1170 -8.8316 -0.0000 -0.0000 9.1724 33.2205 28.2935 17.2450 -7.1250 0.0000 -0.0000 3.3939 62.7083 1.4608 0.0000 0.0000 0.0000 66.5986 -24.4001 48.2286 -18.8521 29.2345 -4.9584 0.0000 -0.0000 -9.7421 -18.4777 -18.0068 5.8977 7.1250 -0.0000 -0.0000 9.3338 -48.6719 -0.8522
0.00 0.00 0.00 49.0571 86.7466 57.0391 0.0000 0.0000 0.0000 -40.0232 -17.9812 9.2525 0.0377 1.2526 3.4442 0.5373 8.7146 -19.6621 12.2545 -18.4962 -66.7932 0.0000 0.0000 0.0000 19.7506 14.9481 -25.8948 -0.9610 -6.2419 17.4878 -1.7935 -13.7985 -33.4518 -0.1237 2.2675 -6.2455 -7.2961 -0.1134 12.3729 2.3937 -1.0117 -12.1391 7.2149 1.0876 -20.7987 0.5191 -0.7575 -16.0271 -5.1812 1.9079 36.3018 -1.8377 0.6000 15.5280 0.0000 -0.0000 0.0000 -84.5355 17.0552 19.0900 25.8361 -37.0464 -8.7887 -0.0000 -0.0000 10.9966 33.0526 32.7338 19.3852 -7.1250 0.0000 -0.0000 1.3262 67.4613 0.7166 0.0000 -0.0000 0.0000 66.4658 -25.5192 48.5062 -19.2795 29.7645 -5.1689 0.0000 -0.0000 -10.3044 -19.3311 -16.5984 5.7226 7.1250 -0.0000 -0.0000 8.1336 -47.3445 -0.4735
0.00 0.00 0.00 173.4060 88.9008 182.7900 0.0000 0.0000 0.0000 -32.9106 -4.0856 16.4215 0.8840 5.9935 16.7656 0.1122 1.9030 -7.3291 10.5227 -17.6935 -61.2214 0.0000 0.0000 0.0000 26.9710 19.4924 -19.1304 -0.3465 -3.7823 10.4651 -0.1847 -12.5187 -19.9919 -0.0855 -1.8856 5.1896 -5.3761 -1.3398 8.6265 4.1022 -1.5876 -13.4371 8.2539 0.8640 -20.3997 -0.9612 -1.7309 -15.9628 -3.5998 0.2207 36.0263 -1.1927 -0.1086 15.3046 -0.0000 0.0000 0.0000 -92.3279 26.9742 3.1237 16.4604 -26.1409 -3.8466 -0.0000 -0.0000 18.8324 26.9971 31.1891 14.7796 -7.1250 0.0000 -0.0000 -5.8094 64.0819 -2.6903 -0.0000 0.0000 0.0000 65.5213 -28.4457 46.0840 -16.5248 26.2270 -3.8750 0.0000 -0.0000 -10.3003 -18.8727 -18.0384 6.0425 7.1250 -0.0000 -0.0000 8.9669 -48.7631 -0.8384
0.00 0.00 0.00 234.6130 86.6838 242.1720 0.0000 0.0000 0.0000 -24.2149 0.1552 6.9063 3.7429 11.8102 35.0638 -0.2429 12.5347 5.0534 10.2265 -17.5353 -60.2429 0.0000 0.0000 0.0000 33.4993 14.8249 -9.9336 -0.1081 -2.1196 5.8362 -0.5083 -10.3131 -20.9070 -0.0546 -1.5077 4.1470 -3.1964 -1.2287 8.9192 4.4792 -1.0366 -12.5063 7.2789 0.7207 -19.4269 -0.9456 -2.2229 -15.8594 -2.5488 -1.0121 35.4260 -0.9595 -0.5013 14.9658 0.0000 -0.0000 0.0000 -91.6888 27.3498 -1.3643 15.6455 -25.0376 -3.4946 -0.0000 -0.0000 19.9289 26.4912 31.2442 14.4941 -7.1250 0.0000 -0.0000 -6.4683 63.9996 -2.9842 0.0000 -0.0000 0.0000 66.0723 -26.9452 47.7744 -18.1167 28.3064 -4.6045 0.0000 -0.0000 -10.4358 -18.3204 -17.6964 5.7475 7.1250 -0.0000 -0.0000 9.3913 -48.3308 -0.7780
0.00 0.00 0.00 405.8470 83.6498 413.6660 0.0000 0.0000 0.0000 -41.6532 -19.2859 12.1366 0.0073 0.5528 1.5191 1.2154 10.1849 -26.7907 11.0341 -17.9517 -62.8923 0.0000 0.0000 0.0000 19.7655 17.7761 -22.8164 -0.0238 -0.9962 2.7384 -4.5185 -19.5609 -49.7365 -0.0043 -0.4220 1.1596 -8.7528 -0.4628 11.3281 2.5555 -1.6946 -12.5010 8.4175 1.0240 -20.4051 -2.3359 -3.2674 -14.7252 -0.2408 -3.1557 34.3500 -0.1102 -1.3335 14.2633 0.0000 -0.0000 0.0000 -86.5809 12.3344 33.0891 19.7131 -30.2952 -5.3859 -0.0000 -0.0000 13.8777 32.5345 31.5978 18.4816 -7.1250 0.0000 -0.0000 1.1762 66.0928 0.5987 0.0000 -0.0000 0.0000 67.0553 -26.2965 47.3142 -21.8883 32.8506 -6.5252 0.0000 -0.0000 -14.6881 -16.3645 -16.6260 4.8026 7.1250 -0.0000 -0.0000 10.9116 -46.9685 -0.5362
0.00 0.00 0.00 414.5590 80.0399 424.7860 0.0000 0.0000 0.0000 -39.8688 -2.4573 7.5873 0.9057 6.0648 16.9726 1.1230 1.6565 -20.6820 13.5177 -18.9612 -70.7260 0.0000 0.0000 0.0000 19.6274 21.1104 -18.4161 -0.0075 0.5611 -1.5418 -4.3671 -27.4459 -54.7648 -2.8125 -10.3851 30.2329 -8.0910 -2.1686 7.4920 3.6872 -3.2948 -13.7185 9.6368 0.3754 -19.5866 -6.3335 -5.8403 -14.1207 0.2336 -6.3156 29.0766 0.2845 -3.2943 12.1450 0.0000 0.0000 0.0000 -94.7051 22.1851 31.6345 17.0011 -26.8593 -4.0879 -0.0000 -0.0000 14.8379 26.8054 29.0073 13.7668 -7.1250 0.0000 -0.0000 -4.8203 61.7660 -1.9690 0.0000 0.0000 0.0000 63.0296 -31.3262 42.9467 -17.6217 27.6700 -4.3721 0.0000 -0.0000 -11.5655 -19.1580 -19.9097 6.7472 7.1250 -0.0000 -0.0000 9.2762 -50.7273 -1.3189
0.00 0.00 0.00 402.8780 78.1846 411.6470 0.0000 0.0000 0.0000 -33.9866 5.3047 0.6267 2.8551 10.4567 30.4686 0.0451 1.2669 -4.6899 14.4450 -19.2435 -73.5590 0.0000 0.0000 0.0000 23.2410 22.0159 -11.0538 -0.0299 1.1170 -3.0707 -3.1313 -28.8833 -52.1317 -2.1631 -9.1978 26.4159 -8.9265 -2.2855 8.2950 4.5355 -3.6089 -13.6202 11.2030 0.3927 -19.2370 -6.7637 -6.2534 -14.1685 0.7725 -7.0357 27.4647 0.4566 -3.6294 11.5908 -0.0000 0.0000 0.0000 -95.8847 23.3733 24.3807 13.3856 -21.8495 -2.5950 -0.0000 -0.0000 21.7889 22.0596 29.3083 11.2199 -7.1250 0.0000 -0.0000 -10.4815 60.8795 -4.0816 -0.0000 0.0000 0.0000 62.1793 -30.5281 44.6040 -18.3159 28.5597 -4.6993 0.0000 -0.0000 -15.6287 -20.4361 -18.4677 6.7317 7.1250 -0.0000 -0.0000 7.5909 -49.4451 -0.8363
0.00 0.00 0.00 361.1400 68.8556 367.7860 0.0000 0.0000 0.0000 -16.9901 1.6106 -11.7319 6.0826 14.5079 45.3122 0.1606 11.6083 -18.5797 12.8479 -18.7266 -68.6524 0.0000 0.0000 0.0000 39.4689 15.8890 -0.8170 -0.0359 1.2225 -3.3613 -0.7663 -21.9072 -35.5417 -1.4350 -7.5738 21.4270 -2.1022 -1.9528 10.1438 6.0625 -1.7036 -12.4784 8.8560 0.4475 -20.1517 -5.8513 -6.2419 -13.5934 0.7817 -7.3976 24.7475 0.3053 -3.7667 10.4229 -0.0000 -0.0000 0.0000 -92.0658 22.7033 10.8759 13.0309 -21.3325 -2.4645 -0.0000 -0.0000 25.0707 31.0944 30.0614 16.8102 -7.1250 0.0000 -0.0000 -0.0231 64.0342 -0.0107 -0.0000 -0.0000 0.0000 62.4326 -27.9686 48.7802 -24.2180 35.3939 -7.8324 0.0000 -0.0000 -18.3491 -19.8319 -18.1415 6.4071 7.1250 -0.0000 -0.0000 8.0794 -49.0138 -0.8046
0.00 0.00 0.00 357.1060 40.9226 366.9800 0.0000 0.0000 0.0000 -9.0405 -20.8422 -21.9770 3.1162 10.8809 31.8792 1.3086 13.0996 -29.8734 12.0178 -18.3982 -66.0454 0.0000 0.0000 0.0000 43.8902 10.2135 -1.2869 -0.0036 -0.3859 1.0603 -0.3505 -0.4337 -11.3483 -0.3482 -3.7916 10.4910 -0.3032 -1.1589 9.7508 5.5591 -0.4751 -12.7627 6.9085 0.6188 -20.4785 -3.7073 -5.3174 -13.6133 3.5309 -7.5049 25.9012 0.8991 -3.3079 10.8705 0.0000 0.0000 0.0000 -88.9614 26.0389 8.5722 15.9679 -25.4771 -3.6322 -0.0000 -0.0000 12.5423 32.8711 30.6382 18.2277 -7.1250 0.0000 -0.0000 2.0710 65.1602 1.0096 0.0000 0.0000 0.0000 63.5961 -24.4215 56.2686 -32.7086 43.1048 -13.2225 0.0000 -0.0000 -17.3403 -20.3302 -19.7474 7.1355 7.1250 -0.0000 -0.0000 8.0767 -50.7539 -1.1516
